<svg xmlns="http://www.w3.org/2000/svg" xmlns:xlink="http://www.w3.org/1999/xlink" version="1.1" x="0px" y="0px" viewBox="0 0 59 59" enable-background="new 0 0 284.982 58.062" xml:space="preserve"><g id="Layer_1"><g><path fill-rule="evenodd" clip-rule="evenodd" fill="#FFFFFF" d="M32.309 4.022c0 0 0.154 0.8 0.191 1.954 0.107 3.281-0.783 5.389-3.1 7.7 -0.473 0.472-1.006 0.964-1.603 1.472 7.919 4.926 12.055 15.695 7.458 23.222 -6.205 10.142-18.5 7.834-25.218 0.893 -7.033-7.271-6.1-16.675-1.05-23.647C14.199 8.422 23.777 3.777 32.309 4.022L32.309 4.022z"></path><path fill-rule="evenodd" clip-rule="evenodd" fill="#99AD68" d="M13.215 45.341C6.403 43.113 1.542 36.494 0.351 29.558 -2.936 10.414 17.436-6.86 37.785 2.732c0.24 4.301-1.754 10.42-7.236 12.258 27.203 17.172 3.945 52.35-24.56 40.783 -5.203-2.652-2.423-7.5 3.136-4.691 6.209 2.141 14.278 2.141 19.362-0.666 3.279-1.793 6.213-4.244 8.277-7.375 0.58-0.879 1.352-2.195 1.963-3.631 0.432-1.014 1.82-5.203 0.742-5.656 -0.27-0.113-0.412 0.207-0.486 0.508 -0.688 2.781-2.039 5.188-3.895 7.355 -2.18 2.545-4.93 4.482-8.402 5.748 -4.064 1.482-8.775 1.668-15.252 0.252C11.859 47.154 12.719 45.865 13.215 45.341L13.215 45.341zM31.994 4.451c0 0 0.148 0.777 0.186 1.896 0.104 3.182-0.76 5.225-3.006 7.467 -0.459 0.459-0.977 0.936-1.555 1.428 7.68 4.777 11.691 15.223 7.232 22.521 -6.018 9.836-17.943 7.598-24.458 0.865 -6.821-7.051-5.916-16.172-1.018-22.934C14.43 8.718 23.719 4.212 31.994 4.451L31.994 4.451z"></path><path fill-rule="evenodd" clip-rule="evenodd" fill="#292929" d="M8.841 26.044c1.463-14.596 18.26-17.49 24.504 1.967C38.383 48.009 6.527 43.658 8.841 26.044L8.841 26.044zM22.537 35.648c13.264 0.484 6.91-13.08-1.801-16.078C12.104 16.599 7.306 35.648 22.537 35.648L22.537 35.648z"></path><path fill-rule="evenodd" clip-rule="evenodd" fill="#D8EAC1" d="M22.537 35.648c13.264 0.484 6.91-13.08-1.801-16.078C12.104 16.599 7.306 35.648 22.537 35.648L22.537 35.648z"></path></g></g></svg>